<svg xmlns="http://www.w3.org/2000/svg" viewBox="0 0 1200 630">
  <defs>
    <linearGradient id="g1" x1="0" x2="1" y1="0" y2="1">
      <stop offset="0" stop-color="#05101f"/>
      <stop offset="1" stop-color="#0b1a30"/>
    </linearGradient>
    <linearGradient id="neon" x1="0" x2="1" y1="0" y2="0">
      <stop offset="0" stop-color="#07f0ff"/>
      <stop offset="1" stop-color="#a24cff"/>
    </linearGradient>
  </defs>
  <rect width="100%" height="100%" fill="url(#g1)"/>
  <g opacity=".15" stroke="#123" stroke-width="1">
    <path d="M0 40H1200"/><path d="M0 80H1200"/><path d="M0 120H1200"/><path d="M0 160H1200"/>
    <path d="M0 200H1200"/><path d="M0 240H1200"/><path d="M0 280H1200"/><path d="M0 320H1200"/>
    <path d="M0 360H1200"/><path d="M0 400H1200"/><path d="M0 440H1200"/><path d="M0 480H1200"/>
  </g>
  <text x="60" y="120" fill="#cfe9ff" font-size="48" font-weight="800">Hello, I’m</text>
  <text x="60" y="190" fill="#ffffff" font-size="72" font-weight="900">Sayanth Sreekanth</text>
  <text x="60" y="240" fill="#07f0ff" font-size="28" font-weight="700">aka Skywalkr_2091</text>
  <rect x="60" y="280" width="260" height="40" rx="10" fill="none" stroke="#0af" opacity=".8"/>
  <rect x="330" y="280" width="220" height="40" rx="10" fill="none" stroke="#0af" opacity=".5"/>
  <text x="72" y="306" fill="#9cc" font-size="18">Explore Projects</text>
  <text x="342" y="306" fill="#9cc" font-size="18">Read the Blog</text>
  <circle cx="980" cy="290" r="90" fill="none" stroke="url(#neon)" stroke-width="6" opacity=".8"/>
  <text x="920" y="410" fill="#8df" font-size="16">Three.js starfield</text>
</svg>

